<svg xmlns="http://www.w3.org/2000/svg" viewBox="0 0 128 128">
  <defs>
    <linearGradient id="bgGrad" x1="0%" y1="0%" x2="100%" y2="100%">
      <stop offset="0%" style="stop-color:#2563eb"/>
      <stop offset="100%" style="stop-color:#3b82f6"/>
    </linearGradient>
  </defs>

  <!-- Rounded square background -->
  <rect x="4" y="4" width="120" height="120" rx="24" fill="url(#bgGrad)"/>

  <!-- Simple open book icon -->
  <g>
    <!-- Left page -->
    <path d="M18 32 Q18 26 26 26 L60 26 Q64 26 64 32 L64 96 Q60 92 56 92 L26 92 Q18 92 18 84 Z"
          fill="white"/>
    <!-- Right page -->
    <path d="M110 32 Q110 26 102 26 L68 26 Q64 26 64 32 L64 96 Q68 92 72 92 L102 92 Q110 92 110 84 Z"
          fill="white"/>
    <!-- Book spine -->
    <rect x="60" y="26" width="8" height="70" fill="#e0e7ff"/>
  </g>

  <!-- Text lines on left page -->
  <rect x="26" y="38" width="28" height="6" rx="3" fill="#93c5fd"/>
  <rect x="26" y="52" width="24" height="5" rx="2.5" fill="#bfdbfe"/>
  <rect x="26" y="64" width="26" height="5" rx="2.5" fill="#bfdbfe"/>
  <rect x="26" y="76" width="22" height="5" rx="2.5" fill="#bfdbfe"/>

  <!-- Text lines on right page -->
  <rect x="74" y="38" width="26" height="6" rx="3" fill="#93c5fd"/>
  <rect x="74" y="52" width="22" height="5" rx="2.5" fill="#bfdbfe"/>
  <rect x="74" y="64" width="28" height="5" rx="2.5" fill="#bfdbfe"/>
  <rect x="74" y="76" width="24" height="5" rx="2.5" fill="#bfdbfe"/>
</svg>
